<svg width="800" height="800" viewBox="0 0 800 800" fill="none" xmlns="http://www.w3.org/2000/svg">
<g clip-path="url(#clip0_71_11)">
<path d="M400 0C293.913 0 192.172 42.1427 117.157 117.157C42.1427 192.172 0 293.913 0 400C0 506.087 42.1427 607.828 117.157 682.843C192.172 757.857 293.913 800 400 800C506.087 800 607.828 757.857 682.843 682.843C757.857 607.828 800 506.087 800 400C800 293.913 757.857 192.172 682.843 117.157C607.828 42.1427 506.087 0 400 0ZM505.433 726.1H502.333C500.005 726.232 497.674 725.885 495.484 725.083C493.294 724.28 491.292 723.038 489.6 721.433C488.036 719.781 486.818 717.833 486.017 715.704C485.216 713.574 484.847 711.307 484.933 709.033V662.167C485.133 646.6 485.267 630.833 485.267 614.967C485.212 603.364 483.518 591.828 480.233 580.7C477.122 569.451 470.852 559.329 462.167 551.533C485.4 549.29 508.239 544.012 530.1 535.833C548.541 528.821 565.221 517.852 578.967 503.7C592.533 489.467 602.633 472.267 608.467 453.5C615.562 430.517 618.938 406.548 618.467 382.5C618.597 365.709 615.659 349.036 609.8 333.3C603.846 317.44 594.843 302.9 583.3 290.5C585.792 284.246 587.602 277.742 588.7 271.1C589.8 264.433 590.367 257.7 590.367 250.967C590.367 242.3 589.367 233.633 587.367 225.2C585.55 216.55 583.087 208.049 580 199.767C578.821 199.307 577.565 199.08 576.3 199.1H572.633C564.967 199.167 557.433 200.433 550.167 202.8C542.162 205.136 534.332 208.032 526.733 211.467C519.177 214.854 511.82 218.671 504.7 222.9C497.533 227.133 491.2 231.2 485.6 234.967C429.524 219.338 370.242 219.338 314.167 234.967C307.913 230.786 301.555 226.762 295.1 222.9C287.879 218.636 280.397 214.828 272.7 211.5C265.122 207.952 257.261 205.042 249.2 202.8C242.077 200.447 234.635 199.199 227.133 199.1H223.467C222.213 199.082 220.967 199.309 219.8 199.767C216.669 208.06 214.107 216.558 212.133 225.2C210.333 233.667 209.467 242.3 209.433 250.967C209.433 257.7 210 264.433 211.133 271.1C212.233 277.733 214 284.233 216.467 290.5C204.953 302.916 195.984 317.468 190.067 333.333C184.176 349.064 181.205 365.737 181.3 382.533C180.834 406.453 184.118 430.297 191.033 453.2C197.067 471.967 207.133 489.2 220.5 503.733C234.333 517.8 251 528.733 269.367 535.867C291.133 544.2 313.933 549.533 337.133 551.733C330.656 557.604 325.517 564.801 322.067 572.833C318.784 580.778 316.543 589.114 315.4 597.633C303.169 603.489 289.793 606.563 276.233 606.633C263.64 607.137 251.212 603.636 240.733 596.633C230.681 589.184 222.169 579.856 215.667 569.167C212.757 564.677 209.503 560.419 205.933 556.433C202.168 552.242 198.016 548.413 193.533 545C189.115 541.698 184.271 539.007 179.133 537C174.078 534.784 168.619 533.637 163.1 533.633C161.767 533.667 160.433 533.8 159.1 533.967C157.279 533.961 155.465 534.185 153.7 534.633C152.149 535.039 150.682 535.716 149.367 536.633C148.769 536.963 148.269 537.445 147.917 538.03C147.566 538.616 147.376 539.284 147.367 539.967C147.507 541.571 147.997 543.125 148.804 544.519C149.61 545.912 150.712 547.112 152.033 548.033C155.133 550.5 157.7 552.4 159.767 553.733L160.767 554.433C165.2 557.867 169.467 561.567 173.5 565.533C177.233 568.8 180.6 572.5 183.5 576.533C186.5 580.5 189.1 584.733 191.2 589.233C193.633 593.7 196.2 598.833 198.9 604.667C205.167 620.467 216.3 633.833 230.7 642.833C245.8 650.933 262.733 654.967 279.9 654.533C285.7 654.533 291.533 654.2 297.3 653.533C303.033 652.6 308.733 651.633 314.467 650.5V708.6C314.57 710.943 314.179 713.281 313.317 715.462C312.455 717.642 311.143 719.617 309.466 721.256C307.79 722.895 305.786 724.162 303.586 724.974C301.386 725.785 299.04 726.124 296.7 725.967H294.633C216.901 700.855 150.689 648.816 107.919 579.22C65.149 509.625 48.6322 427.045 61.3427 346.353C74.0532 265.66 115.156 192.157 177.249 139.079C239.342 86.0006 318.346 56.8357 400.033 56.8357C481.721 56.8357 560.724 86.0006 622.818 139.079C684.911 192.157 726.013 265.66 738.724 346.353C751.434 427.045 734.918 509.625 692.148 579.22C649.378 648.816 583.165 700.855 505.433 725.967V726.1Z" fill="#EF8354"/>
</g>
<defs>
<clipPath id="clip0_71_11">
<rect width="800" height="800" fill="white"/>
</clipPath>
</defs>
</svg>
