<svg width="800" height="800" viewBox="0 0 800 800" fill="none" xmlns="http://www.w3.org/2000/svg">
<path d="M645.125 199.9V199.925C645.125 224.775 624.975 244.9 600.15 244.9C575.325 244.9 555.175 224.75 555.175 199.925C555.175 175.075 575.325 154.95 600.15 154.95C624.975 154.975 645.1 175.075 645.125 199.9ZM400 524.975C330.975 524.975 275.025 469.025 275.025 400C275.025 330.975 330.975 275.025 400 275.025C469.025 275.025 524.975 330.975 524.975 400C524.975 469 469.05 524.95 400.05 524.95H400.025L400 524.975ZM400 207.5C293.675 207.5 207.5 293.7 207.5 400C207.5 506.3 293.7 592.5 400 592.5C506.325 592.5 592.5 506.3 592.5 400C592.5 400 592.5 400 592.5 399.975C592.5 293.675 506.325 207.475 400 207.475C400 207.475 400 207.475 399.975 207.475L400 207.5ZM400 92.6C500.075 92.6 512 93.1 551.525 94.825C576.6 95.125 600.45 99.875 622.525 108.275L621.1 107.8C653.95 120.6 679.45 146.1 691.975 178.1L692.275 178.95C700.175 199.6 704.875 223.475 705.175 248.4V248.525C706.95 288.075 707.35 299.95 707.35 400.05C707.35 500.15 706.875 512.05 705.05 551.575C704.575 576.675 699.8 600.525 691.425 622.6L691.9 621.15C685.45 638.05 675.9 652.45 663.825 664.3L663.8 664.325C651.975 676.425 637.575 685.975 621.5 692.05L620.7 692.325C599.975 700.225 576.025 704.925 551 705.225H550.875C511.075 707 499.35 707.4 399.075 707.4C298.75 707.4 287.05 706.925 247.275 705.1C222.075 704.625 198.125 699.85 175.95 691.475L177.425 691.95C160.525 685.6 146.125 676.025 134.375 663.9L134.35 663.875C122.125 652.125 112.525 637.7 106.5 621.55L106.25 620.775C98.3751 600.075 93.6001 576.15 93.1251 551.15V550.95C91.7251 511.575 91.2251 499.425 91.2251 399.625C91.2251 299.775 91.7251 287.6 93.1251 247.75C93.6001 222.575 98.3501 198.65 106.725 176.5L106.25 177.975C112.425 161 122.05 146.55 134.325 134.875L134.375 134.825C146.075 122.525 160.5 112.95 176.675 107.025L177.45 106.775C198.025 98.825 221.8 94.05 246.65 93.625H246.825C286.65 92.225 298.375 91.75 398.625 91.75L400 92.6ZM400 25.1C298.15 25.1 285.45 25.575 245.45 27.35C212.575 28.05 181.4 34.4 152.55 45.425L154.45 44.8C128.45 54.725 106.3 69.45 88.0501 88L88.0251 88.025C69.4001 106.275 54.7001 128.45 45.2001 153.2L44.7751 154.45C34.3751 181.4 28.0251 212.6 27.3501 245.15V245.45C25.4751 285.45 25.1001 298.15 25.1001 400C25.1001 501.85 25.5751 514.55 27.3501 554.55C28.0501 587.425 34.4001 618.6 45.4251 647.45L44.8001 645.55C64.7001 696.075 103.925 735.3 153.15 754.75L154.45 755.2C181.4 765.575 212.6 771.925 245.15 772.625H245.45C285.45 774.5 298.15 774.875 400 774.875C501.85 774.875 514.55 774.4 554.55 772.625C587.425 771.9 618.6 765.575 647.45 754.55L645.55 755.2C696.075 735.3 735.3 696.075 754.75 646.85L755.2 645.55C765.6 618.6 771.925 587.4 772.625 554.85V554.55C774.5 514.55 774.875 501.85 774.875 400C774.875 298.15 774.4 285.45 772.625 245.45C771.9 212.575 765.575 181.4 754.55 152.55L755.2 154.45C745.25 128.45 730.55 106.3 711.975 88.05L711.95 88.025C693.7 69.4 671.525 54.7 646.775 45.2L645.525 44.775C618.575 34.375 587.375 28.025 554.825 27.35H554.525C514.525 25.475 501.825 25.1 399.975 25.1H400Z" fill="#EF8354"/>
</svg>
