<svg width="129" height="163" viewBox="0 0 129 163" fill="none" xmlns="http://www.w3.org/2000/svg">
<g clip-path="url(#clip0_71_18)">
<path d="M63.1803 0.693512C62.4545 1.05659 59.9471 2.50888 57.5716 3.86215C49.9504 8.25203 44.7706 11.2226 41.5703 13.071C39.8547 14.0942 37.8422 15.2494 37.1164 15.6455C36.3905 16.0746 30.7488 19.3422 24.5793 22.9069C12.0752 30.1684 12.735 29.7723 6.59847 33.304C4.15703 34.7233 1.64962 36.1426 1.08875 36.4726L0 37.0998V50.6655V64.2642L2.87033 65.8815C10.8875 70.4034 17.156 74.0671 17.156 74.2652C17.156 74.5292 11.1514 78.0939 2.21049 83.1439L0.164962 84.2992V97.9639V111.596L10.2276 117.471L20.2903 123.313L20.3893 134.964C20.4223 143.018 20.5872 146.748 20.8512 147.078C21.0491 147.309 22.9297 148.497 25.0412 149.685C27.1527 150.906 29.3302 152.128 29.8581 152.458C30.4189 152.755 34.378 155.032 38.667 157.541C42.989 160.016 46.6512 162.03 46.8491 162.03C47.0801 162.03 47.179 149.784 47.179 124.93V87.7979L52.2269 84.9263C54.9652 83.342 58.8913 81.0975 60.9368 79.9423L64.632 77.8299L72.1542 82.1867C76.2783 84.5632 80.2373 86.8737 80.9302 87.3028L82.1509 88.0949V125.062C82.1509 145.394 82.2829 162.03 82.4148 162.03C82.5798 162.03 87.7266 159.125 93.8962 155.56C100.033 151.996 105.872 148.662 106.829 148.101L108.545 147.111V135.294V123.478L110.788 122.158C112.009 121.432 116.034 119.088 119.762 116.976C123.49 114.863 127.086 112.751 127.779 112.322L129 111.53V97.9969V84.4642L127.548 83.54C126.724 83.0449 122.863 80.8005 118.937 78.556C113.329 75.3214 111.91 74.3642 112.24 74.0671C112.471 73.8361 116.331 71.5586 120.851 68.9841L129 64.2642V50.6324V37.0007L124.48 34.3932C119.366 31.4226 106.235 23.8641 99.9668 20.2664C97.6903 18.9461 93.9951 16.8007 91.7187 15.4804C87.9905 13.302 81.0621 9.30824 77.6969 7.39386C76.9711 6.96477 75.0575 5.84254 73.4079 4.88534C68.591 2.07979 64.8299 -0.0326233 64.665 0.000381468C64.566 0.000381468 63.9061 0.29744 63.1803 0.693512ZM68.2281 32.5448C72.979 35.3174 76.8391 37.5288 81.9859 40.4994C94.1931 47.4968 99.1419 50.4344 99.076 50.6985C98.944 51.0945 85.7141 58.7191 85.1202 58.7191C84.6253 58.7191 78.5547 55.2864 68.5581 49.4112L64.698 47.1338L60.145 49.7413C57.6376 51.1605 53.0847 53.8011 49.9834 55.5834C46.9151 57.3658 44.2427 58.8181 44.0448 58.8181C43.4179 58.8181 29.6601 50.6985 29.924 50.4674C30.056 50.3354 33.8171 48.157 38.2711 45.6154C55.5261 35.7135 63.1803 31.2576 63.5102 30.9605C64.1041 30.3664 65.0609 30.6965 68.2281 32.5448ZM10.1616 46.3746C12.2731 47.5958 14.8465 49.0481 15.8363 49.6423C17.6179 50.7315 31.5407 58.8181 32.8274 59.5112C33.1903 59.7093 35.1698 60.8315 37.2153 61.9867L40.9105 64.0661V107.965V151.864L39.5248 151.038C37.2153 149.718 31.5737 146.484 30.5179 145.856C27.4826 144.107 26.8558 143.711 26.6578 143.381C26.5258 143.216 26.3939 137.836 26.3939 131.433V119.847L17.4199 114.665C12.4711 111.794 7.85217 109.12 7.19233 108.691L5.93862 107.899V99.6142V91.3626L7.85217 92.4188C8.87494 93.0129 13.3949 95.6204 17.8818 98.2279C22.3688 100.802 26.1299 102.948 26.2289 102.948C26.3279 102.948 26.3939 96.0825 26.3939 87.6658V72.4168L22.0389 69.9413C19.6634 68.588 15.1105 65.9475 11.9102 64.1321L6.10358 60.7985L6.0046 52.4808C5.97161 47.9259 6.0046 44.1962 6.10358 44.1962C6.20256 44.1962 8.01714 45.1864 10.1616 46.3746ZM122.929 60.5674C122.83 60.7985 121.709 61.5576 120.356 62.3168C119.036 63.0759 114.549 65.6504 110.359 68.0599L102.771 72.4498L102.672 87.7318C102.606 101.298 102.672 103.014 103.101 102.816C103.365 102.717 107.852 100.175 113.032 97.1717C118.212 94.1681 122.599 91.7256 122.764 91.7256C122.929 91.7256 123.061 95.3234 123.061 99.9113V108.097L112.834 114.005L102.606 119.913L102.54 131.796L102.441 143.711L98.4821 145.988C96.3046 147.243 93.1703 149.025 91.4877 149.982C89.8381 150.939 88.3864 151.633 88.2875 151.534C88.1885 151.435 88.0895 131.763 88.0895 107.833V64.3302L89.3432 63.538C90.0691 63.1089 93.6322 61.0295 97.2614 58.9171C100.924 56.8047 106.928 53.339 110.623 51.2266C114.285 49.1141 118.541 46.6717 120.092 45.7805L122.896 44.1962L122.995 52.1838C123.028 56.6066 122.995 60.3694 122.929 60.5674Z" fill="#2D3142"/>
</g>
<defs>
<clipPath id="clip0_71_18">
<rect width="129" height="163" fill="white"/>
</clipPath>
</defs>
</svg>
