<svg width="24" height="24" viewBox="0 0 24 24" fill="none" xmlns="http://www.w3.org/2000/svg">
<path d="M11.41 10.9999L13.71 8.7099C13.8037 8.61694 13.8781 8.50634 13.9289 8.38448C13.9797 8.26262 14.0058 8.13191 14.0058 7.9999C14.0058 7.86789 13.9797 7.73718 13.9289 7.61532C13.8781 7.49346 13.8037 7.38286 13.71 7.2899C13.617 7.19617 13.5064 7.12178 13.3846 7.07101C13.2627 7.02024 13.132 6.9941 13 6.9941C12.868 6.9941 12.7373 7.02024 12.6154 7.07101C12.4936 7.12178 12.383 7.19617 12.29 7.2899L8.29 11.2899C8.19896 11.385 8.12759 11.4971 8.08 11.6199C7.97998 11.8634 7.97998 12.1364 8.08 12.3799C8.12759 12.5027 8.19896 12.6148 8.29 12.7099L12.29 16.7099C12.3832 16.8031 12.4939 16.8771 12.6158 16.9276C12.7376 16.978 12.8681 17.004 13 17.004C13.1319 17.004 13.2624 16.978 13.3842 16.9276C13.5061 16.8771 13.6168 16.8031 13.71 16.7099C13.8032 16.6167 13.8772 16.506 13.9277 16.3841C13.9781 16.2623 14.0041 16.1318 14.0041 15.9999C14.0041 15.868 13.9781 15.7375 13.9277 15.6157C13.8772 15.4938 13.8032 15.3831 13.71 15.2899L11.41 12.9999L21 12.9999C21.2652 12.9999 21.5196 12.8945 21.7071 12.707C21.8946 12.5195 22 12.2651 22 11.9999C22 11.7347 21.8946 11.4803 21.7071 11.2928C21.5196 11.1053 21.2652 10.9999 21 10.9999L11.41 10.9999ZM12 21.9999C13.8689 22.0082 15.7028 21.4927 17.2935 20.5117C18.8843 19.5307 20.1683 18.1236 21 16.4499C21.1193 16.2112 21.139 15.9349 21.0546 15.6817C20.9702 15.4285 20.7887 15.2192 20.55 15.0999C20.3113 14.9806 20.035 14.9609 19.7818 15.0453C19.5286 15.1297 19.3193 15.3112 19.2 15.5499C18.5678 16.8266 17.6062 17.9113 16.4145 18.6919C15.2227 19.4725 13.8442 19.9208 12.4212 19.9903C10.9983 20.0598 9.58262 19.7481 8.32048 19.0874C7.05834 18.4267 5.99553 17.4409 5.24189 16.2319C4.48825 15.0229 4.07112 13.6347 4.0336 12.2105C3.99608 10.7864 4.33954 9.37806 5.02848 8.13109C5.71743 6.88412 6.72686 5.84375 7.95246 5.11748C9.17807 4.39121 10.5754 4.00539 12 3.9999C13.4911 3.99344 14.9538 4.40754 16.2203 5.19465C17.4868 5.98177 18.5056 7.11001 19.16 8.4499C19.2793 8.68859 19.4886 8.8701 19.7418 8.95449C19.995 9.03888 20.2713 9.01925 20.51 8.8999C20.7487 8.78055 20.9302 8.57127 21.0146 8.3181C21.099 8.06492 21.0793 7.78859 20.96 7.5499C20.1672 5.95439 18.9625 4.59967 17.4705 3.62585C15.9786 2.65204 14.2536 2.09451 12.4739 2.01091C10.6942 1.92732 8.92451 2.32071 7.34785 3.15039C5.77119 3.98007 4.44482 5.21591 3.50593 6.73008C2.56704 8.24425 2.04973 9.98176 2.0075 11.7629C1.96528 13.544 2.39967 15.3041 3.26576 16.8611C4.13184 18.418 5.39816 19.7153 6.93373 20.6188C8.4693 21.5223 10.2184 21.9991 12 21.9999Z" fill="#EF8354"/>
</svg>
