<svg width="800" height="800" viewBox="0 0 800 800" fill="none" xmlns="http://www.w3.org/2000/svg">
<g clip-path="url(#clip0_71_27)">
<path fill-rule="evenodd" clip-rule="evenodd" d="M400 0V88.8887C571.511 88.8887 711.111 228.445 711.111 400C711.111 571.555 571.511 711.111 400 711.111C228.489 711.111 88.8887 571.555 88.8887 400C88.8887 317.911 121.555 240.622 177.778 183.022V288.889H266.667V44.4446H22.2221V133.333H101.822C36.9333 205.867 0 300.4 0 400C0 620.533 179.422 800 400 800C620.578 800 800 620.533 800 400C800 179.467 620.578 0 400 0Z" fill="#EF8354" stroke="#EF8354" stroke-width="0.416667"/>
</g>
<defs>
<clipPath id="clip0_71_27">
<rect width="800" height="800" fill="white"/>
</clipPath>
</defs>
</svg>
